<svg width="74" height="33" viewBox="0 0 74 33" fill="none" xmlns="http://www.w3.org/2000/svg">
<path d="M55.8545 9.07847C54.676 7.62919 52.7313 6.9278 50.8255 7.44578C48.2229 8.15314 46.6784 10.8666 47.3758 13.5065C47.9147 15.5467 49.6349 16.9459 51.5899 17.1497C48.6238 17.7297 45.6771 15.8921 44.883 12.8862C44.0524 9.74175 45.8921 6.50968 48.992 5.66714C51.8344 4.89463 54.7494 6.39921 55.8545 9.07847Z" fill="#F59D91"/>
<path d="M56.165 10.3545C57.3194 12.8773 59.8721 14.6308 62.8356 14.6308C66.8826 14.6308 70.1632 11.3608 70.1632 7.32697C70.1632 4.20952 68.2038 1.54825 65.4455 0.5C69.9711 0.822568 73.542 4.58427 73.542 9.17729C73.542 13.982 69.6343 17.877 64.8139 17.877C60.3941 17.877 56.7415 14.6024 56.165 10.3545Z" fill="#9089CF"/>
<path d="M48.4075 12.9672C48.9022 14.0934 49.9962 14.8762 51.2663 14.8762C53.0007 14.8762 54.4067 13.4164 54.4067 11.6156C54.4067 10.2239 53.5669 9.03585 52.3848 8.56787C54.3243 8.71189 55.8547 10.3912 55.8547 12.4416C55.8547 14.5866 54.18 16.3254 52.1141 16.3254C50.2199 16.3254 48.6545 14.8636 48.4075 12.9672Z" fill="#F28475"/>
<path d="M68.2669 4.73424C67.0883 3.28495 65.1437 2.58357 63.2379 3.10155C60.6353 3.80889 59.0908 6.52238 59.7881 9.16228C60.327 11.2025 62.0473 12.6016 64.0023 12.8055C61.0361 13.3854 58.0894 11.5478 57.2954 8.54191C56.4648 5.39751 58.3044 2.16545 61.4044 1.32291C64.2468 0.550384 67.1617 2.05498 68.2669 4.73424Z" fill="#7069BD"/>
<path d="M9.16813 25.3545C9.99339 25.5466 10.6317 25.9436 11.083 26.5454C11.5472 27.1344 11.7793 27.8195 11.7793 28.6005C11.7793 29.7914 11.3796 30.7133 10.5801 31.3664C9.79353 32.0066 8.65879 32.3267 7.1759 32.3267H0V18.728H6.98248C8.37511 18.728 9.47116 19.029 10.2706 19.6308C11.0701 20.2326 11.4698 21.1097 11.4698 22.2622C11.4698 23.0561 11.2571 23.7283 10.8316 24.2789C10.4189 24.8167 9.86445 25.1753 9.16813 25.3545ZM4.29394 24.0292H5.95735C6.34419 24.0292 6.62788 23.9524 6.8084 23.7987C7.00182 23.6451 7.09853 23.4082 7.09853 23.0881C7.09853 22.7552 7.00182 22.5119 6.8084 22.3582C6.62788 22.1917 6.34419 22.1085 5.95735 22.1085H4.29394V24.0292ZM6.24748 28.9079C6.63433 28.9079 6.91801 28.8374 7.09853 28.6966C7.29195 28.5429 7.38866 28.2996 7.38866 27.9667C7.38866 27.3137 7.00827 26.9871 6.24748 26.9871H4.29394V28.9079H6.24748Z" fill="#F28475"/>
<path d="M18.2897 18.728V32.3267H13.9958V18.728H18.2897Z" fill="#F28475"/>
<path d="M26.3605 32.4612C24.7229 32.4612 23.3689 32.0835 22.2987 31.328C21.2413 30.5597 20.6675 29.4393 20.5772 27.9667H25.142C25.2064 28.7478 25.5546 29.1383 26.1864 29.1383C26.4185 29.1383 26.6119 29.0871 26.7667 28.9847C26.9343 28.8694 27.0181 28.6966 27.0181 28.4661C27.0181 28.146 26.8441 27.8899 26.4959 27.6978C26.1477 27.4929 25.6062 27.2624 24.8712 27.0063C23.9943 26.699 23.2658 26.3981 22.6855 26.1036C22.1181 25.8091 21.6281 25.3801 21.2155 24.8167C20.8029 24.2533 20.603 23.5298 20.6159 22.6463C20.6159 21.7628 20.8416 21.0137 21.2929 20.3991C21.7571 19.7716 22.3825 19.2979 23.1691 18.9777C23.9685 18.6576 24.8647 18.4976 25.8576 18.4976C27.5339 18.4976 28.8621 18.8817 29.8421 19.65C30.835 20.4183 31.3572 21.5003 31.4088 22.896H26.786C26.7731 22.5119 26.6764 22.2366 26.4959 22.0701C26.3154 21.9036 26.0962 21.8204 25.8383 21.8204C25.6577 21.8204 25.5095 21.8844 25.3934 22.0125C25.2773 22.1277 25.2193 22.2942 25.2193 22.5119C25.2193 22.8192 25.3869 23.0753 25.7222 23.2802C26.0704 23.4722 26.6184 23.7091 27.3663 23.9908C28.2302 24.3109 28.9394 24.6183 29.4939 24.9128C30.0613 25.2073 30.5513 25.617 30.9639 26.142C31.3765 26.667 31.5829 27.3265 31.5829 28.1204C31.5829 28.9527 31.3765 29.7018 30.9639 30.3676C30.5513 31.0207 29.9517 31.5328 29.1651 31.9042C28.3785 32.2755 27.4437 32.4612 26.3605 32.4612Z" fill="#F28475"/>
<path d="M41.9695 32.3267L37.4048 26.3725V32.3267H34.0973V18.8433H37.4048V24.7591L41.9309 18.8433H45.8186L40.5576 25.4506L46.012 32.3267H41.9695Z" fill="#746CC3"/>
<path d="M51.2782 18.8433V32.3267H47.9707V18.8433H51.2782Z" fill="#746CC3"/>
<path d="M66.2088 32.3267H62.9013L57.3694 24.01V32.3267H54.062V18.8433H57.3694L62.9013 27.1984V18.8433H66.2088V32.3267Z" fill="#746CC3"/>
<path d="M72.3006 18.8433V32.3267H68.9931V18.8433H72.3006Z" fill="#746CC3"/>
</svg>
