<svg width="300" height="300" viewBox="0 0 300 300" fill="none" xmlns="http://www.w3.org/2000/svg">
<path d="M128.436 150.462C120.583 140.942 107.625 136.334 94.9258 139.737C77.5838 144.384 67.2923 162.209 71.9391 179.551C75.5302 192.953 86.9925 202.145 100.02 203.484C80.2553 207.294 60.6199 195.222 55.329 175.476C49.7942 154.819 62.0525 133.587 82.7087 128.053C101.648 122.978 121.072 132.862 128.436 150.462Z" fill="#F59D91"/>
<path d="M131.657 157.697C139.253 174.352 156.05 185.928 175.55 185.928C202.18 185.928 223.767 164.341 223.767 137.711C223.767 117.131 210.874 99.562 192.724 92.6418C222.503 94.7713 246 119.605 246 149.926C246 181.645 220.287 207.358 188.568 207.358C159.485 207.358 135.45 185.741 131.657 157.697Z" fill="#9089CF"/>
<path d="M79.3821 175.865C82.7402 183.228 90.1658 188.346 98.7867 188.346C110.559 188.346 120.103 178.802 120.103 167.029C120.103 157.931 114.403 150.164 106.379 147.105C119.544 148.046 129.932 159.025 129.932 172.429C129.932 186.452 118.564 197.82 104.542 197.82C91.6844 197.82 81.0592 188.263 79.3821 175.865Z" fill="#F28475"/>
<path d="M210.77 122.086C202.917 112.566 189.959 107.958 177.26 111.361C159.918 116.008 149.626 133.833 154.273 151.175C157.864 164.577 169.327 173.769 182.354 175.108C162.589 178.918 142.954 166.846 137.663 147.1C132.128 126.443 144.387 105.211 165.043 99.6766C183.983 94.6017 203.406 104.486 210.77 122.086Z" fill="#7069BD"/>
</svg>
